<svg id="Layer_1" data-name="Layer 1" xmlns="http://www.w3.org/2000/svg" viewBox="0 0 100 100"><defs><style>.cls-1{fill:#fbb62b;}.cls-2{fill:none;stroke:#fff;stroke-miterlimit:10;stroke-width:4.01px;}.cls-3{fill:#fff;}</style></defs><title>ig</title><path class="cls-1" d="M76,89.1H28a16,16,0,0,1-16-16V25A16,16,0,0,1,28,9H76A16,16,0,0,1,92,25V73A16.07,16.07,0,0,1,76,89.1Z"/><path class="cls-2" d="M64.4,77.5H39.5a16,16,0,0,1-16-16V36.6a16,16,0,0,1,16-16H64.4a16,16,0,0,1,16,16V61.5A16,16,0,0,1,64.4,77.5Z"/><circle class="cls-2" cx="52" cy="49" r="13.4"/><circle class="cls-3" cx="69.4" cy="32.3" r="4"/></svg>