<svg id="Layer_1" data-name="Layer 1" xmlns="http://www.w3.org/2000/svg" viewBox="0 0 100 100"><defs><style>.cls-1{fill:#fff;}.cls-2{fill:#fbb62b;}</style></defs><title>linked</title><rect class="cls-1" x="17" y="18" width="70" height="69" rx="13.9" ry="13.9"/><path class="cls-2" d="M73.54,12H27.46A16.46,16.46,0,0,0,11,28.46V74.54A16.46,16.46,0,0,0,27.46,91H73.54A16.46,16.46,0,0,0,90,74.54V28.46A16.46,16.46,0,0,0,73.54,12ZM37.33,74.54H27.46V38.33h9.87ZM32.4,34.16a5.81,5.81,0,1,1,5.76-5.81A5.79,5.79,0,0,1,32.4,34.16ZM76.83,74.54H67V56.1c0-11.09-13.17-10.25-13.17,0V74.54H43.92V38.33h9.87v5.81c4.6-8.51,23-9.14,23,8.15Z"/></svg>